<svg width="24" height="25" viewBox="0 0 24 25" fill="none" xmlns="http://www.w3.org/2000/svg">
<path d="M12 3.275C15 3.275 15.36 3.28625 16.5458 3.34025C17.2593 3.34867 17.9662 3.47984 18.6353 3.728C19.1237 3.90832 19.5656 4.19588 19.9283 4.5695C20.3019 4.93218 20.5894 5.37402 20.7698 5.8625C21.0179 6.5316 21.1491 7.23841 21.1575 7.952C21.2115 9.14 21.225 9.5 21.225 12.5C21.225 15.5 21.2138 15.86 21.1598 17.0458C21.1513 17.7593 21.0202 18.4662 20.772 19.1353C20.5847 19.6202 20.2981 20.0606 19.9305 20.4282C19.5629 20.7958 19.1225 21.0825 18.6375 21.2698C17.9684 21.5179 17.2616 21.6491 16.548 21.6575C15.3623 21.7115 15.006 21.7228 12.0023 21.7228C8.9985 21.7228 8.64225 21.7115 7.4565 21.6575C6.74291 21.6491 6.0361 21.5179 5.367 21.2698C4.87852 21.0894 4.43668 20.8019 4.074 20.4282C3.70038 20.0656 3.41282 19.6237 3.2325 19.1353C2.98434 18.4662 2.85317 17.7593 2.84475 17.0458C2.7885 15.86 2.775 15.5037 2.775 12.5C2.775 9.49625 2.78625 9.14 2.84025 7.95425C2.84867 7.24066 2.97984 6.53385 3.228 5.86475C3.40898 5.37606 3.69731 4.9342 4.07175 4.57175C4.43443 4.19813 4.87627 3.91057 5.36475 3.73025C6.03385 3.48209 6.74066 3.35092 7.45425 3.3425C8.64 3.2885 9 3.275 12 3.275ZM12 1.25C8.9445 1.25 8.56125 1.26275 7.362 1.3175C6.42842 1.33728 5.5049 1.51478 4.6305 1.8425C3.88032 2.12483 3.20059 2.56707 2.6385 3.1385C2.06626 3.70037 1.62324 4.38012 1.34025 5.1305C1.01253 6.0049 0.83503 6.92842 0.81525 7.862C0.76275 9.06125 0.75 9.4445 0.75 12.5C0.75 15.5555 0.76275 15.9388 0.8175 17.138C0.83728 18.0716 1.01478 18.9951 1.3425 19.8695C1.62549 20.6199 2.06851 21.2996 2.64075 21.8615C3.20262 22.4337 3.88237 22.8768 4.63275 23.1597C5.50715 23.4875 6.43067 23.665 7.36425 23.6847C8.56425 23.7395 8.94675 23.7523 12.0023 23.7523C15.0578 23.7523 15.441 23.7395 16.6403 23.6847C17.5738 23.665 18.4974 23.4875 19.3718 23.1597C20.1188 22.8702 20.7972 22.428 21.3638 21.8615C21.9303 21.295 22.3724 20.6165 22.662 19.8695C22.9897 18.9951 23.1672 18.0716 23.187 17.138C23.2418 15.938 23.2545 15.5555 23.2545 12.5C23.2545 9.4445 23.2418 9.06125 23.187 7.862C23.1672 6.92842 22.9897 6.0049 22.662 5.1305C22.379 4.38012 21.936 3.70037 21.3638 3.1385C20.8019 2.56626 20.1221 2.12324 19.3718 1.84025C18.4974 1.51253 17.5738 1.33503 16.6403 1.31525C15.4388 1.26275 15.0555 1.25 12 1.25Z" fill="url(#paint0_linear_124_5223)"/>
<path d="M11.9996 6.72498C10.8574 6.72498 9.74089 7.06367 8.79119 7.69824C7.8415 8.3328 7.1013 9.23474 6.66421 10.29C6.22711 11.3452 6.11275 12.5064 6.33558 13.6266C6.55841 14.7469 7.10842 15.7759 7.91607 16.5835C8.72372 17.3912 9.75272 17.9412 10.873 18.164C11.9932 18.3868 13.1544 18.2725 14.2096 17.8354C15.2649 17.3983 16.1668 16.6581 16.8013 15.7084C17.4359 14.7587 17.7746 13.6422 17.7746 12.5C17.7746 10.9684 17.1662 9.49946 16.0832 8.41643C15.0001 7.33341 13.5312 6.72498 11.9996 6.72498ZM11.9996 16.25C11.2579 16.25 10.5329 16.03 9.91622 15.618C9.29954 15.2059 8.81889 14.6203 8.53506 13.935C8.25123 13.2498 8.17697 12.4958 8.32167 11.7684C8.46636 11.041 8.82351 10.3728 9.34796 9.84833C9.87241 9.32388 10.5406 8.96673 11.268 8.82203C11.9955 8.67734 12.7495 8.7516 13.4347 9.03543C14.1199 9.31926 14.7056 9.7999 15.1176 10.4166C15.5297 11.0333 15.7496 11.7583 15.7496 12.5C15.7496 13.4945 15.3545 14.4484 14.6513 15.1516C13.948 15.8549 12.9942 16.25 11.9996 16.25Z" fill="url(#paint1_linear_124_5223)"/>
<path d="M18.0043 7.84478C18.7499 7.84478 19.3543 7.24036 19.3543 6.49478C19.3543 5.74919 18.7499 5.14478 18.0043 5.14478C17.2587 5.14478 16.6543 5.74919 16.6543 6.49478C16.6543 7.24036 17.2587 7.84478 18.0043 7.84478Z" fill="url(#paint2_linear_124_5223)"/>
<defs>
<linearGradient id="paint0_linear_124_5223" x1="0.75" y1="12.5011" x2="23.2545" y2="12.5011" gradientUnits="userSpaceOnUse">
<stop stop-color="#E9550D"/>
<stop offset="1" stop-color="#F8AB00"/>
</linearGradient>
<linearGradient id="paint1_linear_124_5223" x1="6.22461" y1="12.5" x2="17.7746" y2="12.5" gradientUnits="userSpaceOnUse">
<stop stop-color="#E9550D"/>
<stop offset="1" stop-color="#F8AB00"/>
</linearGradient>
<linearGradient id="paint2_linear_124_5223" x1="16.6543" y1="6.49478" x2="19.3543" y2="6.49478" gradientUnits="userSpaceOnUse">
<stop stop-color="#E9550D"/>
<stop offset="1" stop-color="#F8AB00"/>
</linearGradient>
</defs>
</svg>
