<svg width="24" height="24" viewBox="0 0 24 24" fill="none" xmlns="http://www.w3.org/2000/svg">
<path d="M14.2376 21.1041C14.0549 21.1497 13.8686 21.1901 13.6837 21.2242C13.2003 21.3141 12.8807 21.779 12.9701 22.2628C13.0142 22.5009 13.1494 22.6991 13.333 22.8286C13.5221 22.9617 13.7629 23.0218 14.0082 22.9762C14.2284 22.9353 14.4504 22.8873 14.6682 22.8329C15.1455 22.7141 15.4364 22.2305 15.3173 21.7534C15.1985 21.2758 14.7153 20.9852 14.2376 21.1041Z" fill="white"/>
<path d="M20.8269 9.16323C20.8893 9.3513 21.0084 9.50483 21.1589 9.61092C21.3821 9.76807 21.674 9.82095 21.9526 9.72882C22.4198 9.57371 22.6729 9.07001 22.5183 8.60312C22.4479 8.39028 22.3698 8.17677 22.2866 7.96889C22.1038 7.51205 21.5857 7.28964 21.1286 7.47237C20.672 7.65501 20.4495 8.17334 20.6324 8.63032C20.7023 8.80505 20.7678 8.9844 20.8269 9.16323Z" fill="white"/>
<path d="M17.1337 19.8321C16.9765 19.9358 16.8143 20.0363 16.6509 20.1303C16.2246 20.3762 16.0786 20.9211 16.3244 21.3473C16.3912 21.4632 16.4801 21.5579 16.5824 21.6303C16.8572 21.8237 17.2305 21.8526 17.5412 21.6736C17.7355 21.5616 17.9286 21.4424 18.1158 21.3186C18.5261 21.0475 18.6391 20.4948 18.3678 20.0843C18.0966 19.6736 17.5442 19.5608 17.1337 19.8321Z" fill="white"/>
<path d="M23.072 11.6512C23.0526 11.1595 22.6385 10.7768 22.1466 10.796C21.6554 10.8154 21.2724 11.2297 21.2917 11.7212C21.2991 11.9091 21.301 12.0998 21.2967 12.2876C21.2898 12.5959 21.4406 12.8708 21.6749 13.036C21.8146 13.1343 21.984 13.1938 22.1677 13.198C22.6595 13.2089 23.0669 12.8189 23.0778 12.327C23.0828 12.1026 23.0809 11.8754 23.072 11.6512Z" fill="white"/>
<path d="M20.6811 17.4887C20.2868 17.1929 19.729 17.2732 19.4337 17.6668C19.3206 17.8175 19.2015 17.9663 19.0796 18.1097C18.7609 18.4841 18.8059 19.0465 19.1803 19.3654C19.2017 19.3835 19.2233 19.4002 19.2457 19.4158C19.6179 19.6782 20.1352 19.6179 20.4362 19.2647C20.5818 19.0937 20.7238 18.9159 20.8589 18.7359C21.1543 18.3423 21.0743 17.7841 20.6811 17.4887Z" fill="white"/>
<path d="M21.99 14.2682C21.5206 14.121 21.0206 14.3823 20.8735 14.8518C20.8172 15.0312 20.7548 15.2114 20.6875 15.3879C20.5396 15.7764 20.6813 16.2039 21.0062 16.433C21.0658 16.4748 21.1314 16.5103 21.2027 16.5373C21.6624 16.7127 22.1771 16.4821 22.3523 16.0222C22.4323 15.8124 22.5065 15.598 22.5736 15.3848C22.7205 14.9152 22.4594 14.4154 21.99 14.2682Z" fill="white"/>
<path d="M10.3519 21.2319C9.55539 21.0889 8.79135 20.8454 8.06685 20.5057C8.05828 20.5012 8.05061 20.4961 8.0416 20.492C7.87087 20.4117 7.70043 20.3256 7.53523 20.2357L7.5327 20.2342C7.22959 20.0673 6.93377 19.8826 6.64638 19.6803C2.4557 16.7282 1.4481 10.9172 4.40032 6.72654C5.04227 5.81563 5.81912 5.05569 6.6852 4.45337C6.69587 4.44594 6.70654 4.43856 6.71712 4.43108C9.76904 2.32822 13.9131 2.1865 17.1537 4.34738L16.4577 5.35304C16.2642 5.63295 16.3833 5.83693 16.722 5.80644L19.7454 5.53577C20.0845 5.50528 20.2874 5.21189 20.1961 4.88434L19.3843 1.95918C19.2934 1.63125 19.0607 1.59199 18.867 1.87186L18.1694 2.87989C15.7911 1.28345 12.9387 0.674707 10.1075 1.16565C9.8224 1.215 9.54124 1.2754 9.26395 1.34571C9.26181 1.3461 9.25838 1.34671 9.25838 1.34671C9.24766 1.34933 9.2368 1.35281 9.22637 1.35572C6.785 1.98266 4.65494 3.40656 3.135 5.43816C3.12219 5.45336 3.10899 5.46822 3.09689 5.48475C3.04635 5.55282 2.99619 5.62247 2.94707 5.69211C2.86676 5.80625 2.78759 5.92324 2.71184 6.04024C2.70237 6.05434 2.69512 6.06868 2.68684 6.08292C1.43257 8.02654 0.827584 10.2735 0.931337 12.5611C0.931575 12.5687 0.931146 12.5762 0.931337 12.584C0.941388 12.8074 0.959109 13.034 0.983165 13.257C0.984451 13.2714 0.987643 13.285 0.990072 13.2994C1.01494 13.5237 1.04614 13.7485 1.08525 13.9732C1.48273 16.2664 2.56446 18.3298 4.18538 19.9354C4.18915 19.9392 4.19305 19.9433 4.19686 19.9472C4.1982 19.9487 4.19967 19.9494 4.20096 19.9508C4.63645 20.3803 5.11015 20.7776 5.62019 21.1369C6.95497 22.0774 8.44127 22.6991 10.0375 22.9855C10.5218 23.0726 10.9844 22.7502 11.0713 22.2661C11.1582 21.7817 10.8361 21.3186 10.3519 21.2319Z" fill="white"/>
<path d="M11.4535 4.88281C11.0551 4.88281 10.7324 5.20579 10.7324 5.6036V12.7847L17.3001 16.1798C17.4058 16.2345 17.519 16.2603 17.6303 16.2603C17.8912 16.2603 18.1431 16.1182 18.2712 15.8704C18.4539 15.5166 18.3157 15.082 17.9619 14.8993L12.1738 11.9069V5.6036C12.1737 5.20579 11.8514 4.88281 11.4535 4.88281Z" fill="white"/>
</svg>
